CalSansText-Light.ufo
<glyph name="nine" format="2">
  <advance width="564.0"/>
  <unicode hex="0039"/>
  <outline>
    <contour>
      <point x="164.0" y="0.0" type="line"/>
      <point x="264.0" y="0.0" type="line"/>
      <point x="441.0" y="297.0" type="line" smooth="yes"/>
      <point x="474.0" y="352.0"/>
      <point x="511.0" y="424.0"/>
      <point x="511.0" y="489.0" type="curve" smooth="yes"/>
      <point x="511.0" y="619.0"/>
      <point x="416.0" y="713.0"/>
      <point x="277.0" y="713.0" type="curve" smooth="yes"/>
      <point x="141.0" y="713.0"/>
      <point x="46.0" y="619.0"/>
      <point x="46.0" y="486.0" type="curve" smooth="yes"/>
      <point x="46.0" y="320.0"/>
      <point x="200.0" y="230.0"/>
      <point x="338.0" y="296.0" type="curve"/>
      <point x="339.0" y="294.0" type="line"/>
    </contour>
    <contour>
      <point x="270.0" y="342.0" type="curve" smooth="yes"/>
      <point x="195.0" y="342.0"/>
      <point x="131.0" y="405.0"/>
      <point x="131.0" y="489.0" type="curve" smooth="yes"/>
      <point x="131.0" y="580.0"/>
      <point x="198.0" y="638.0"/>
      <point x="277.0" y="638.0" type="curve" smooth="yes"/>
      <point x="359.0" y="638.0"/>
      <point x="424.0" y="580.0"/>
      <point x="424.0" y="486.0" type="curve" smooth="yes"/>
      <point x="424.0" y="405.0"/>
      <point x="363.0" y="342.0"/>
    </contour>
  </outline>
</glyph>
<glyph name="equal" format="2">
  <advance width="596.0"/>
  <unicode hex="003D"/>
  <outline>
    <contour>
      <point x="82.0" y="381.0" type="line"/>
      <point x="514.0" y="381.0" type="line"/>
      <point x="514.0" y="453.0" type="line"/>
      <point x="82.0" y="453.0" type="line"/>
    </contour>
    <contour>
      <point x="82.0" y="181.0" type="line"/>
      <point x="514.0" y="181.0" type="line"/>
      <point x="514.0" y="253.0" type="line"/>
      <point x="82.0" y="253.0" type="line"/>
    </contour>
  </outline>
</glyph>
<glyph name="A" format="2">
  <advance width="693.0"/>
  <unicode hex="0041"/>
  <anchor x="353.0" y="0.0" name="bottom"/>
  <anchor x="592.0" y="0.0" name="ogonek"/>
  <anchor x="347.0" y="700.0" name="top"/>
  <anchor x="347.0" y="619.0" name="top_ring"/>
  <outline>
    <contour>
      <point x="13.0" y="0.0" type="line"/>
      <point x="101.0" y="0.0" type="line"/>
      <point x="173.0" y="177.0" type="line"/>
      <point x="185.0" y="208.0" type="line"/>
      <point x="307.0" y="500.0" type="line" smooth="yes"/>
      <point x="329.0" y="551.0"/>
      <point x="336.0" y="578.0"/>
      <point x="344.0" y="602.0" type="curve"/>
      <point x="349.0" y="602.0" type="line"/>
      <point x="357.0" y="578.0"/>
      <point x="364.0" y="552.0"/>
      <point x="386.0" y="500.0" type="curve" smooth="yes"/>
      <point x="507.0" y="208.0" type="line"/>
      <point x="519.0" y="177.0" type="line"/>
      <point x="592.0" y="0.0" type="line"/>
      <point x="680.0" y="0.0" type="line"/>
      <point x="380.0" y="700.0" type="line"/>
      <point x="313.0" y="700.0" type="line"/>
    </contour>
    <contour>
      <point x="150.0" y="156.0" type="line"/>
      <point x="538.0" y="156.0" type="line"/>
      <point x="538.0" y="232.0" type="line"/>
      <point x="150.0" y="232.0" type="line"/>
    </contour>
  </outline>
</glyph>
<glyph name="M" format="2">
  <advance width="923.0"/>
  <unicode hex="004D"/>
  <anchor x="461.0" y="0.0" name="bottom"/>
  <anchor x="758.0" y="0.0" name="ogonek"/>
  <anchor x="463.0" y="700.0" name="top"/>
  <outline>
    <contour>
      <point x="82.0" y="0.0" type="line"/>
      <point x="165.0" y="0.0" type="line"/>
      <point x="165.0" y="376.0" type="line" smooth="yes"/>
      <point x="165.0" y="485.0"/>
      <point x="162.0" y="549.0"/>
      <point x="156.0" y="592.0" type="curve"/>
      <point x="160.0" y="592.0" type="line"/>
      <point x="441.0" y="0.0" type="line"/>
      <point x="483.0" y="0.0" type="line"/>
      <point x="762.0" y="592.0" type="line"/>
      <point x="766.0" y="592.0" type="line"/>
      <point x="761.0" y="553.0"/>
      <point x="758.0" y="487.0"/>
      <point x="758.0" y="376.0" type="curve" smooth="yes"/>
      <point x="758.0" y="0.0" type="line"/>
      <point x="841.0" y="0.0" type="line"/>
      <point x="841.0" y="700.0" type="line"/>
      <point x="730.0" y="700.0" type="line"/>
      <point x="541.0" y="306.0" type="line" smooth="yes"/>
      <point x="497.0" y="214.0"/>
      <point x="474.0" y="158.0"/>
      <point x="466.0" y="125.0" type="curve"/>
      <point x="462.0" y="125.0" type="line"/>
      <point x="454.0" y="159.0"/>
      <point x="429.0" y="215.0"/>
      <point x="386.0" y="306.0" type="curve" smooth="yes"/>
      <point x="199.0" y="700.0" type="line"/>
      <point x="82.0" y="700.0" type="line"/>
    </contour>
  </outline>
</glyph>
<glyph name="N" format="2">
  <advance width="755.0"/>
  <unicode hex="004E"/>
  <anchor x="385.0" y="0.0" name="bottom"/>
  <anchor x="666.0" y="0.0" name="ogonek"/>
  <anchor x="376.0" y="700.0" name="top"/>
  <outline>
    <contour>
      <point x="82.0" y="0.0" type="line"/>
      <point x="163.0" y="0.0" type="line"/>
      <point x="163.0" y="453.0" type="line" smooth="yes"/>
      <point x="163.0" y="512.0"/>
      <point x="161.0" y="551.0"/>
      <point x="157.0" y="574.0" type="curve"/>
      <point x="160.0" y="574.0" type="line"/>
      <point x="164.0" y="562.0"/>
      <point x="180.0" y="537.0"/>
      <point x="201.0" y="511.0" type="curve" smooth="yes"/>
      <point x="603.0" y="0.0" type="line"/>
      <point x="673.0" y="0.0" type="line"/>
      <point x="673.0" y="700.0" type="line"/>
      <point x="592.0" y="700.0" type="line"/>
      <point x="592.0" y="255.0" type="line" smooth="yes"/>
      <point x="592.0" y="182.0"/>
      <point x="594.0" y="151.0"/>
      <point x="599.0" y="130.0" type="curve"/>
      <point x="595.0" y="130.0" type="line"/>
      <point x="591.0" y="142.0"/>
      <point x="569.0" y="175.0"/>
      <point x="550.0" y="199.0" type="curve" smooth="yes"/>
      <point x="156.0" y="700.0" type="line"/>
      <point x="82.0" y="700.0" type="line"/>
    </contour>
  </outline>
</glyph>
<glyph name="V" format="2">
  <advance width="692.0"/>
  <unicode hex="0056"/>
  <anchor x="349.0" y="0.0" name="bottom"/>
  <anchor x="380.0" y="0.0" name="ogonek"/>
  <anchor x="349.0" y="700.0" name="top"/>
  <outline>
    <contour>
      <point x="313.0" y="0.0" type="line"/>
      <point x="380.0" y="0.0" type="line"/>
      <point x="677.0" y="700.0" type="line"/>
      <point x="578.0" y="700.0" type="line"/>
      <point x="382.0" y="206.0" type="line" smooth="yes"/>
      <point x="365.0" y="162.0"/>
      <point x="357.0" y="137.0"/>
      <point x="349.0" y="110.0" type="curve"/>
      <point x="344.0" y="110.0" type="line"/>
      <point x="336.0" y="137.0"/>
      <point x="327.0" y="165.0"/>
      <point x="311.0" y="206.0" type="curve" smooth="yes"/>
      <point x="115.0" y="700.0" type="line"/>
      <point x="15.0" y="700.0" type="line"/>
    </contour>
  </outline>
</glyph>
<glyph name="k" format="2">
  <advance width="525.0"/>
  <unicode hex="006B"/>
  <anchor x="263.0" y="0.0" name="bottom"/>
  <anchor x="263.0" y="740.0" name="top"/>
  <outline>
    <contour>
      <point x="72.0" y="0.0" type="line"/>
      <point x="154.0" y="0.0" type="line"/>
      <point x="154.0" y="254.0" type="line"/>
      <point x="157.0" y="254.0" type="line"/>
      <point x="387.0" y="0.0" type="line"/>
      <point x="498.0" y="0.0" type="line"/>
      <point x="246.0" y="273.0" type="line"/>
      <point x="484.0" y="490.0" type="line"/>
      <point x="368.0" y="490.0" type="line"/>
      <point x="157.0" y="284.0" type="line"/>
      <point x="154.0" y="284.0" type="line"/>
      <point x="154.0" y="740.0" type="line"/>
      <point x="72.0" y="740.0" type="line"/>
    </contour>
  </outline>
</glyph>
<glyph name="q" format="2">
  <advance width="610.0"/>
  <unicode hex="0071"/>
  <anchor x="498.0" y="-220.0" name="bottom"/>
  <anchor x="350.0" y="0.0" name="ogonek"/>
  <anchor x="282.0" y="490.0" name="top"/>
  <outline>
    <contour>
      <point x="281.0" y="-13.0" type="curve" smooth="yes"/>
      <point x="364.0" y="-13.0"/>
      <point x="424.0" y="34.0"/>
      <point x="452.0" y="94.0" type="curve"/>
      <point x="458.0" y="94.0" type="line"/>
      <point x="458.0" y="-220.0" type="line"/>
      <point x="538.0" y="-220.0" type="line"/>
      <point x="538.0" y="490.0" type="line"/>
      <point x="462.0" y="490.0" type="line"/>
      <point x="462.0" y="399.0" type="line"/>
      <point x="456.0" y="399.0" type="line"/>
      <point x="428.0" y="457.0"/>
      <point x="366.0" y="503.0"/>
      <point x="281.0" y="503.0" type="curve" smooth="yes"/>
      <point x="141.0" y="503.0"/>
      <point x="36.0" y="396.0"/>
      <point x="36.0" y="244.0" type="curve" smooth="yes"/>
      <point x="36.0" y="92.0"/>
      <point x="141.0" y="-13.0"/>
    </contour>
    <contour>
      <point x="289.0" y="61.0" type="curve" smooth="yes"/>
      <point x="182.0" y="61.0"/>
      <point x="116.0" y="140.0"/>
      <point x="116.0" y="245.0" type="curve" smooth="yes"/>
      <point x="116.0" y="352.0"/>
      <point x="182.0" y="429.0"/>
      <point x="289.0" y="429.0" type="curve" smooth="yes"/>
      <point x="393.0" y="429.0"/>
      <point x="459.0" y="350.0"/>
      <point x="459.0" y="244.0" type="curve" smooth="yes"/>
      <point x="459.0" y="142.0"/>
      <point x="393.0" y="61.0"/>
    </contour>
  </outline>
</glyph>
<glyph name="w" format="2">
  <advance width="785.0"/>
  <unicode hex="0077"/>
  <anchor x="393.0" y="0.0" name="bottom"/>
  <anchor x="393.0" y="490.0" name="top"/>
  <outline>
    <contour>
      <point x="176.0" y="0.0" type="line"/>
      <point x="272.0" y="0.0" type="line"/>
      <point x="366.0" y="306.0" type="line" smooth="yes"/>
      <point x="382.0" y="357.0"/>
      <point x="387.0" y="391.0"/>
      <point x="390.0" y="422.0" type="curve"/>
      <point x="396.0" y="422.0" type="line"/>
      <point x="399.0" y="392.0"/>
      <point x="404.0" y="356.0"/>
      <point x="420.0" y="306.0" type="curve" smooth="yes"/>
      <point x="516.0" y="0.0" type="line"/>
      <point x="609.0" y="0.0" type="line"/>
      <point x="768.0" y="490.0" type="line"/>
      <point x="681.0" y="490.0" type="line"/>
      <point x="590.0" y="184.0" type="line" smooth="yes"/>
      <point x="579.0" y="147.0"/>
      <point x="568.0" y="97.0"/>
      <point x="567.0" y="68.0" type="curve"/>
      <point x="561.0" y="68.0" type="line"/>
      <point x="559.0" y="97.0"/>
      <point x="548.0" y="146.0"/>
      <point x="536.0" y="185.0" type="curve" smooth="yes"/>
      <point x="441.0" y="490.0" type="line"/>
      <point x="346.0" y="490.0" type="line"/>
      <point x="252.0" y="185.0" type="line" smooth="yes"/>
      <point x="240.0" y="146.0"/>
      <point x="231.0" y="98.0"/>
      <point x="230.0" y="68.0" type="curve"/>
      <point x="224.0" y="68.0" type="line"/>
      <point x="221.0" y="99.0"/>
      <point x="210.0" y="145.0"/>
      <point x="198.0" y="184.0" type="curve" smooth="yes"/>
      <point x="108.0" y="490.0" type="line"/>
      <point x="17.0" y="490.0" type="line"/>
    </contour>
  </outline>
</glyph>
<glyph name="z" format="2">
  <advance width="527.0"/>
  <unicode hex="007A"/>
  <anchor x="255.0" y="0.0" name="bottom"/>
  <anchor x="473.0" y="0.0" name="ogonek"/>
  <anchor x="255.0" y="490.0" name="top"/>
  <outline>
    <contour>
      <point x="46.0" y="0.0" type="line"/>
      <point x="473.0" y="0.0" type="line"/>
      <point x="473.0" y="72.0" type="line"/>
      <point x="180.0" y="72.0" type="line"/>
      <point x="180.0" y="74.0" type="line"/>
      <point x="193.0" y="84.0"/>
      <point x="202.0" y="96.0"/>
      <point x="220.0" y="121.0" type="curve" smooth="yes"/>
      <point x="477.0" y="475.0" type="line"/>
      <point x="477.0" y="490.0" type="line"/>
      <point x="56.0" y="490.0" type="line"/>
      <point x="56.0" y="418.0" type="line"/>
      <point x="346.0" y="418.0" type="line"/>
      <point x="346.0" y="416.0" type="line"/>
      <point x="333.0" y="406.0"/>
      <point x="322.0" y="391.0"/>
      <point x="302.0" y="364.0" type="curve" smooth="yes"/>
      <point x="46.0" y="15.0" type="line"/>
    </contour>
  </outline>
</glyph>
<glyph name="sterling" format="2">
  <advance width="600.0"/>
  <unicode hex="00A3"/>
  <outline>
    <contour>
      <point x="104.0" y="20.0" type="line"/>
      <point x="129.0" y="55.0"/>
      <point x="168.0" y="69.0"/>
      <point x="214.0" y="69.0" type="curve" smooth="yes"/>
      <point x="289.0" y="69.0"/>
      <point x="320.0" y="24.0"/>
      <point x="406.0" y="24.0" type="curve" smooth="yes"/>
      <point x="451.0" y="24.0"/>
      <point x="521.0" y="45.0"/>
      <point x="568.0" y="109.0" type="curve"/>
      <point x="509.0" y="155.0" type="line"/>
      <point x="487.0" y="118.0"/>
      <point x="455.0" y="97.0"/>
      <point x="411.0" y="97.0" type="curve" smooth="yes"/>
      <point x="311.0" y="97.0"/>
      <point x="300.0" y="166.0"/>
      <point x="164.0" y="114.0" type="curve" smooth="yes"/>
      <point x="157.0" y="111.0"/>
      <point x="148.0" y="108.0"/>
      <point x="138.0" y="106.0" type="curve"/>
      <point x="150.0" y="94.0" type="line"/>
      <point x="210.0" y="140.0"/>
      <point x="261.0" y="224.0"/>
      <point x="261.0" y="264.0" type="curve" smooth="yes"/>
      <point x="261.0" y="290.0"/>
      <point x="259.0" y="310.0"/>
      <point x="244.0" y="330.0" type="curve"/>
      <point x="226.0" y="351.0" type="line"/>
      <point x="185.0" y="399.0"/>
      <point x="171.0" y="440.0"/>
      <point x="171.0" y="476.0" type="curve" smooth="yes"/>
      <point x="171.0" y="557.0"/>
      <point x="229.0" y="599.0"/>
      <point x="313.0" y="599.0" type="curve" smooth="yes"/>
      <point x="398.0" y="599.0"/>
      <point x="459.0" y="547.0"/>
      <point x="459.0" y="464.0" type="curve"/>
      <point x="542.0" y="464.0" type="line"/>
      <point x="542.0" y="589.0"/>
      <point x="449.0" y="673.0"/>
      <point x="313.0" y="673.0" type="curve" smooth="yes"/>
      <point x="176.0" y="673.0"/>
      <point x="85.0" y="600.0"/>
      <point x="85.0" y="480.0" type="curve" smooth="yes"/>
      <point x="85.0" y="414.0"/>
      <point x="110.0" y="370.0"/>
      <point x="161.0" y="335.0" type="curve"/>
      <point x="156.0" y="333.0" type="line"/>
      <point x="169.0" y="318.0"/>
      <point x="179.0" y="294.0"/>
      <point x="179.0" y="262.0" type="curve" smooth="yes"/>
      <point x="179.0" y="229.0"/>
      <point x="133.0" y="174.0"/>
      <point x="86.0" y="122.0" type="curve" smooth="yes"/>
      <point x="39.0" y="70.0" type="line"/>
    </contour>
    <contour>
      <point x="35.0" y="299.0" type="line"/>
      <point x="411.0" y="299.0" type="line"/>
      <point x="411.0" y="371.0" type="line"/>
      <point x="35.0" y="371.0" type="line"/>
    </contour>
  </outline>
</glyph>
<glyph name="currency" format="2">
  <advance width="595.0"/>
  <unicode hex="00A4"/>
  <anchor x="168.655071" y="461.573967" name="_TopCurrency"/>
  <outline>
    <contour>
      <point x="295.0" y="107.0" type="curve" smooth="yes"/>
      <point x="418.0" y="107.0"/>
      <point x="507.0" y="198.0"/>
      <point x="507.0" y="322.0" type="curve" smooth="yes"/>
      <point x="507.0" y="446.0"/>
      <point x="418.0" y="538.0"/>
      <point x="295.0" y="538.0" type="curve" smooth="yes"/>
      <point x="172.0" y="538.0"/>
      <point x="83.0" y="446.0"/>
      <point x="83.0" y="322.0" type="curve" smooth="yes"/>
      <point x="83.0" y="198.0"/>
      <point x="172.0" y="107.0"/>
    </contour>
    <contour>
      <point x="295.0" y="174.0" type="curve" smooth="yes"/>
      <point x="217.0" y="174.0"/>
      <point x="157.0" y="230.0"/>
      <point x="157.0" y="322.0" type="curve" smooth="yes"/>
      <point x="157.0" y="414.0"/>
      <point x="217.0" y="471.0"/>
      <point x="295.0" y="471.0" type="curve" smooth="yes"/>
      <point x="373.0" y="471.0"/>
      <point x="433.0" y="414.0"/>
      <point x="433.0" y="322.0" type="curve" smooth="yes"/>
      <point x="433.0" y="230.0"/>
      <point x="373.0" y="174.0"/>
    </contour>
    <component base="verticalTopCurrencycomb" xScale="0.7313537016191705" xyScale="0.6819983600624985" yxScale="-0.6819983600624985" yScale="0.7313537016191705" xOffset="614.0" yOffset="-16.0"/>
    <component base="verticalTopCurrencycomb" xScale="0.7313537016191705" xyScale="-0.6819983600624985" yxScale="0.6819983600624985" yScale="0.7313537016191705" xOffset="-20.0" yOffset="-16.0"/>
    <component base="verticalTopCurrencycomb" xScale="-0.7313537016191705" xyScale="-0.6819983600624986" yxScale="0.6819983600624986" yScale="-0.7313537016191705" xOffset="-19.0" yOffset="663.0"/>
    <component base="verticalTopCurrencycomb" xScale="-0.7313537016191705" xyScale="0.6819983600624986" yxScale="-0.6819983600624986" yScale="-0.7313537016191705" xOffset="615.0" yOffset="663.0"/>
  </outline>
</glyph>
<glyph name="yen" format="2">
  <advance width="579.0"/>
  <unicode hex="00A5"/>
  <anchor x="291.0" y="30.0" name="bottom"/>
  <anchor x="292.0" y="669.59" name="top"/>
  <anchor x="30.0" y="669.59" name="topleft"/>
  <outline>
    <contour>
      <point x="50.0" y="281.0" type="line"/>
      <point x="538.0" y="281.0" type="line"/>
      <point x="538.0" y="353.0" type="line"/>
      <point x="50.0" y="353.0" type="line"/>
    </contour>
    <contour>
      <point x="50.0" y="160.0" type="line"/>
      <point x="538.0" y="160.0" type="line"/>
      <point x="538.0" y="232.0" type="line"/>
      <point x="50.0" y="232.0" type="line"/>
    </contour>
    <component base="Y" yScale="0.9137" xOffset="10.0" yOffset="30.0"/>
  </outline>
</glyph>
<glyph name="ordfeminine" format="2">
  <advance width="543.0"/>
  <unicode hex="00AA"/>
  <outline>
    <contour>
      <point x="247.0" y="310.0" type="curve" smooth="yes"/>
      <point x="318.0" y="310.0"/>
      <point x="358.0" y="345.0"/>
      <point x="383.0" y="394.0" type="curve"/>
      <point x="388.0" y="394.0" type="line"/>
      <point x="388.0" y="320.0" type="line"/>
      <point x="447.0" y="320.0" type="line"/>
      <point x="447.0" y="702.0" type="line"/>
      <point x="388.0" y="702.0" type="line"/>
      <point x="388.0" y="631.0" type="line"/>
      <point x="383.0" y="631.0" type="line"/>
      <point x="358.0" y="679.0"/>
      <point x="315.0" y="713.0"/>
      <point x="247.0" y="713.0" type="curve" smooth="yes"/>
      <point x="137.0" y="713.0"/>
      <point x="55.0" y="629.0"/>
      <point x="55.0" y="511.0" type="curve" smooth="yes"/>
      <point x="55.0" y="392.0"/>
      <point x="137.0" y="310.0"/>
    </contour>
    <contour>
      <point x="252.0" y="368.0" type="curve" smooth="yes"/>
      <point x="170.0" y="368.0"/>
      <point x="118.0" y="429.0"/>
      <point x="118.0" y="512.0" type="curve" smooth="yes"/>
      <point x="118.0" y="595.0"/>
      <point x="170.0" y="655.0"/>
      <point x="252.0" y="655.0" type="curve" smooth="yes"/>
      <point x="334.0" y="655.0"/>
      <point x="387.0" y="586.0"/>
      <point x="387.0" y="511.0" type="curve" smooth="yes"/>
      <point x="387.0" y="431.0"/>
      <point x="334.0" y="368.0"/>
    </contour>
    <contour>
      <point x="81.0" y="201.0" type="line"/>
      <point x="447.0" y="201.0" type="line"/>
      <point x="447.0" y="256.0" type="line"/>
      <point x="81.0" y="256.0" type="line"/>
    </contour>
  </outline>
</glyph>
<glyph name="logicalnot" format="2">
  <advance width="596.0"/>
  <unicode hex="00AC"/>
  <outline>
    <contour>
      <point x="425.0" y="188.0" type="line"/>
      <point x="505.0" y="188.0" type="line"/>
      <point x="505.0" y="390.0" type="line"/>
      <point x="91.0" y="390.0" type="line"/>
      <point x="91.0" y="318.0" type="line"/>
      <point x="425.0" y="318.0" type="line"/>
    </contour>
  </outline>
</glyph>
<glyph name="Thorn" format="2">
  <advance width="576.0"/>
  <unicode hex="00DE"/>
  <anchor x="300.0" y="0.0" name="bottom"/>
  <anchor x="300.0" y="700.0" name="top"/>
  <outline>
    <contour>
      <point x="82.0" y="0.0" type="line"/>
      <point x="164.0" y="0.0" type="line"/>
      <point x="164.0" y="150.0" type="line"/>
      <point x="306.0" y="150.0" type="line" smooth="yes"/>
      <point x="433.0" y="150.0"/>
      <point x="534.0" y="216.0"/>
      <point x="534.0" y="353.0" type="curve" smooth="yes"/>
      <point x="534.0" y="489.0"/>
      <point x="432.0" y="553.0"/>
      <point x="306.0" y="553.0" type="curve" smooth="yes"/>
      <point x="164.0" y="553.0" type="line"/>
      <point x="164.0" y="700.0" type="line"/>
      <point x="82.0" y="700.0" type="line"/>
    </contour>
    <contour>
      <point x="164.0" y="226.0" type="line"/>
      <point x="164.0" y="477.0" type="line"/>
      <point x="298.0" y="477.0" type="line" smooth="yes"/>
      <point x="388.0" y="477.0"/>
      <point x="449.0" y="445.0"/>
      <point x="449.0" y="353.0" type="curve" smooth="yes"/>
      <point x="449.0" y="259.0"/>
      <point x="388.0" y="226.0"/>
      <point x="298.0" y="226.0" type="curve" smooth="yes"/>
    </contour>
  </outline>
</glyph>
<glyph name="eth" format="2">
  <advance width="574.0"/>
  <unicode hex="00F0"/>
  <outline>
    <contour>
      <point x="412.0" y="454.0" type="curve"/>
      <point x="407.0" y="451.0" type="line"/>
      <point x="366.0" y="493.0"/>
      <point x="317.0" y="503.0"/>
      <point x="277.0" y="503.0" type="curve" smooth="yes"/>
      <point x="139.0" y="503.0"/>
      <point x="36.0" y="388.0"/>
      <point x="36.0" y="235.0" type="curve" smooth="yes"/>
      <point x="36.0" y="98.0"/>
      <point x="132.0" y="-13.0"/>
      <point x="283.0" y="-13.0" type="curve" smooth="yes"/>
      <point x="428.0" y="-13.0"/>
      <point x="538.0" y="87.0"/>
      <point x="538.0" y="254.0" type="curve" smooth="yes"/>
      <point x="538.0" y="445.0"/>
      <point x="395.0" y="687.0"/>
      <point x="219.0" y="825.0" type="curve"/>
      <point x="163.0" y="770.0" type="line"/>
      <point x="278.0" y="674.0"/>
      <point x="337.0" y="604.0"/>
    </contour>
    <contour>
      <point x="284.0" y="61.0" type="curve" smooth="yes"/>
      <point x="181.0" y="61.0"/>
      <point x="116.0" y="141.0"/>
      <point x="116.0" y="245.0" type="curve" smooth="yes"/>
      <point x="116.0" y="350.0"/>
      <point x="188.0" y="429.0"/>
      <point x="284.0" y="429.0" type="curve" smooth="yes"/>
      <point x="387.0" y="429.0"/>
      <point x="453.0" y="349.0"/>
      <point x="453.0" y="245.0" type="curve" smooth="yes"/>
      <point x="453.0" y="139.0"/>
      <point x="387.0" y="61.0"/>
    </contour>
    <contour>
      <point x="165.0" y="546.0" type="line"/>
      <point x="494.0" y="666.0" type="line"/>
      <point x="494.0" y="735.0" type="line"/>
      <point x="331.0" y="675.0" type="line"/>
      <point x="296.0" y="663.0" type="line"/>
      <point x="165.0" y="615.0" type="line"/>
    </contour>
  </outline>
</glyph>
<glyph name="thorn" format="2">
  <advance width="610.0"/>
  <unicode hex="00FE"/>
  <anchor x="305.0" y="0.0" name="bottom"/>
  <anchor x="305.0" y="740.0" name="top"/>
  <outline>
    <contour>
      <point x="329.0" y="-13.0" type="curve" smooth="yes"/>
      <point x="472.0" y="-13.0"/>
      <point x="574.0" y="92.0"/>
      <point x="574.0" y="244.0" type="curve" smooth="yes"/>
      <point x="574.0" y="396.0"/>
      <point x="472.0" y="502.0"/>
      <point x="329.0" y="502.0" type="curve" smooth="yes"/>
      <point x="244.0" y="502.0"/>
      <point x="186.0" y="457.0"/>
      <point x="158.0" y="399.0" type="curve"/>
      <point x="152.0" y="399.0" type="line"/>
      <point x="152.0" y="740.0" type="line"/>
      <point x="72.0" y="740.0" type="line"/>
      <point x="72.0" y="-220.0" type="line"/>
      <point x="152.0" y="-220.0" type="line"/>
      <point x="152.0" y="94.0" type="line"/>
      <point x="158.0" y="94.0" type="line"/>
      <point x="186.0" y="34.0"/>
      <point x="246.0" y="-13.0"/>
    </contour>
    <contour>
      <point x="321.0" y="61.0" type="curve" smooth="yes"/>
      <point x="217.0" y="61.0"/>
      <point x="150.0" y="142.0"/>
      <point x="150.0" y="244.0" type="curve" smooth="yes"/>
      <point x="150.0" y="350.0"/>
      <point x="217.0" y="428.0"/>
      <point x="321.0" y="428.0" type="curve" smooth="yes"/>
      <point x="431.0" y="428.0"/>
      <point x="494.0" y="352.0"/>
      <point x="494.0" y="245.0" type="curve" smooth="yes"/>
      <point x="494.0" y="140.0"/>
      <point x="431.0" y="61.0"/>
    </contour>
  </outline>
</glyph>
<glyph name="Dcroat" format="2">
  <advance width="712.0"/>
  <unicode hex="0110"/>
  <anchor x="319.0" y="0.0" name="bottom"/>
  <anchor x="128.0" y="349.0" name="center"/>
  <anchor x="337.0" y="700.0" name="top"/>
  <outline>
    <contour>
      <point x="14.0" y="326.0" type="line"/>
      <point x="367.0" y="326.0" type="line"/>
      <point x="367.0" y="394.0" type="line"/>
      <point x="14.0" y="394.0" type="line"/>
    </contour>
    <component base="D"/>
  </outline>
</glyph>
<glyph name="Lslash" format="2">
  <advance width="529.0"/>
  <unicode hex="0141"/>
  <anchor x="283.0" y="0.0" name="bottom"/>
  <anchor x="308.0" y="370.0" name="center"/>
  <anchor x="471.0" y="0.0" name="ogonek"/>
  <anchor x="132.0" y="700.0" name="top"/>
  <anchor x="298.0" y="700.0" name="topright"/>
  <outline>
    <contour>
      <point x="16.0" y="235.0" type="line"/>
      <point x="128.0" y="313.0" type="line"/>
      <point x="138.0" y="313.0" type="line"/>
      <point x="309.0" y="425.0" type="line"/>
      <point x="309.0" y="514.0" type="line"/>
      <point x="140.0" y="395.0" type="line"/>
      <point x="128.0" y="395.0" type="line"/>
      <point x="16.0" y="317.0" type="line"/>
    </contour>
    <component base="L" xOffset="10.0"/>
  </outline>
</glyph>
<glyph name="Eng" format="2">
  <advance width="755.0"/>
  <unicode hex="014A"/>
  <anchor x="385.0" y="0.0" name="bottom"/>
  <anchor x="666.0" y="0.0" name="ogonek"/>
  <anchor x="376.0" y="700.0" name="top"/>
  <outline>
    <contour>
      <point x="494.0" y="-233.0" type="curve" smooth="yes"/>
      <point x="607.0" y="-230.0"/>
      <point x="673.0" y="-161.0"/>
      <point x="673.0" y="-35.0" type="curve" smooth="yes"/>
      <point x="673.0" y="0.0" type="line"/>
      <point x="592.0" y="122.0" type="line"/>
      <point x="592.0" y="-32.0" type="line" smooth="yes"/>
      <point x="592.0" y="-109.0"/>
      <point x="552.0" y="-152.0"/>
      <point x="491.0" y="-152.0" type="curve" smooth="yes"/>
      <point x="458.0" y="-152.0"/>
      <point x="430.0" y="-144.0"/>
      <point x="408.0" y="-118.0" type="curve"/>
      <point x="351.0" y="-186.0" type="line"/>
      <point x="388.0" y="-223.0"/>
      <point x="437.0" y="-234.0"/>
    </contour>
    <component base="N"/>
  </outline>
</glyph>
<glyph name="gravecomb" format="2">
  <unicode hex="0300"/>
  <anchor x="0.0" y="490.0" name="_top"/>
  <anchor x="0.0" y="620.0" name="top"/>
  <outline>
    <contour>
      <point x="-23.0" y="547.0" type="line"/>
      <point x="23.0" y="547.0" type="line"/>
      <point x="-4.0" y="706.0" type="line"/>
      <point x="-91.0" y="706.0" type="line"/>
    </contour>
  </outline>
</glyph>
<glyph name="cedillacomb" format="2">
  <unicode hex="0327"/>
  <anchor x="5.0" y="6.0" name="_bottom"/>
  <anchor x="61.0" y="-200.0" name="bottom"/>
  <outline>
    <contour>
      <point x="-16.0" y="-221.0" type="curve" smooth="yes"/>
      <point x="46.0" y="-221.0"/>
      <point x="92.0" y="-184.0"/>
      <point x="92.0" y="-128.0" type="curve" smooth="yes"/>
      <point x="92.0" y="-81.0"/>
      <point x="57.0" y="-49.0"/>
      <point x="12.0" y="-49.0" type="curve"/>
      <point x="11.0" y="-73.0" type="line"/>
      <point x="46.0" y="6.0" type="line"/>
      <point x="1.0" y="18.0" type="line"/>
      <point x="-46.0" y="-88.0" type="line"/>
      <point x="-43.0" y="-91.0" type="line"/>
      <point x="-36.0" y="-89.0"/>
      <point x="-28.0" y="-88.0"/>
      <point x="-18.0" y="-88.0" type="curve" smooth="yes"/>
      <point x="12.0" y="-88.0"/>
      <point x="34.0" y="-101.0"/>
      <point x="34.0" y="-126.0" type="curve" smooth="yes"/>
      <point x="34.0" y="-147.0"/>
      <point x="20.0" y="-166.0"/>
      <point x="-16.0" y="-166.0" type="curve" smooth="yes"/>
      <point x="-39.0" y="-166.0"/>
      <point x="-59.0" y="-157.0"/>
      <point x="-75.0" y="-139.0" type="curve"/>
      <point x="-107.0" y="-184.0" type="line"/>
      <point x="-84.0" y="-208.0"/>
      <point x="-53.0" y="-221.0"/>
    </contour>
  </outline>
</glyph>
<glyph name="pi" format="2">
  <advance width="597.0"/>
  <unicode hex="03C0"/>
  <outline>
    <contour>
      <point x="521.0" y="-7.0" type="curve" smooth="yes"/>
      <point x="548.0" y="-8.0"/>
      <point x="560.0" y="-5.0"/>
      <point x="580.0" y="3.0" type="curve"/>
      <point x="580.0" y="74.0" type="line"/>
      <point x="572.0" y="67.0"/>
      <point x="546.0" y="66.0"/>
      <point x="529.0" y="66.0" type="curve" smooth="yes"/>
      <point x="484.0" y="66.0"/>
      <point x="460.0" y="95.0"/>
      <point x="460.0" y="152.0" type="curve" smooth="yes"/>
      <point x="460.0" y="418.0" type="line"/>
      <point x="580.0" y="418.0" type="line"/>
      <point x="580.0" y="490.0" type="line"/>
      <point x="17.0" y="490.0" type="line"/>
      <point x="17.0" y="418.0" type="line"/>
      <point x="132.0" y="418.0" type="line"/>
      <point x="132.0" y="0.0" type="line"/>
      <point x="212.0" y="0.0" type="line"/>
      <point x="212.0" y="418.0" type="line"/>
      <point x="380.0" y="418.0" type="line"/>
      <point x="380.0" y="147.0" type="line" smooth="yes"/>
      <point x="380.0" y="49.0"/>
      <point x="428.0" y="-4.0"/>
    </contour>
  </outline>
</glyph>
<glyph name="Germandbls" format="2">
  <advance width="684.0"/>
  <unicode hex="1E9E"/>
  <outline>
    <contour>
      <point x="408.0" y="-13.0" type="curve" smooth="yes"/>
      <point x="567.0" y="-13.0"/>
      <point x="658.0" y="71.0"/>
      <point x="658.0" y="206.0" type="curve" smooth="yes"/>
      <point x="658.0" y="315.0"/>
      <point x="587.0" y="411.0"/>
      <point x="451.0" y="420.0" type="curve"/>
      <point x="451.0" y="422.0" type="line"/>
      <point x="602.0" y="696.0" type="line"/>
      <point x="602.0" y="700.0" type="line"/>
      <point x="82.0" y="700.0" type="line"/>
      <point x="82.0" y="0.0" type="line"/>
      <point x="164.0" y="0.0" type="line"/>
      <point x="164.0" y="624.0" type="line"/>
      <point x="472.0" y="624.0" type="line"/>
      <point x="472.0" y="621.0" type="line"/>
      <point x="464.0" y="611.0"/>
      <point x="456.0" y="600.0"/>
      <point x="446.0" y="580.0" type="curve" smooth="yes"/>
      <point x="328.0" y="370.0" type="line"/>
      <point x="328.0" y="357.0" type="line"/>
      <point x="487.0" y="384.0"/>
      <point x="574.0" y="307.0"/>
      <point x="574.0" y="204.0" type="curve" smooth="yes"/>
      <point x="574.0" y="116.0"/>
      <point x="519.0" y="63.0"/>
      <point x="411.0" y="63.0" type="curve" smooth="yes"/>
      <point x="377.0" y="63.0"/>
      <point x="354.0" y="66.0"/>
      <point x="320.0" y="78.0" type="curve"/>
      <point x="320.0" y="3.0" type="line"/>
      <point x="343.0" y="-9.0"/>
      <point x="377.0" y="-13.0"/>
    </contour>
  </outline>
</glyph>
<glyph name="perthousand" format="2">
  <advance width="1066.0"/>
  <unicode hex="2030"/>
  <outline>
    <contour>
      <point x="87.0" y="0.0" type="line"/>
      <point x="147.0" y="0.0" type="line"/>
      <point x="644.0" y="700.0" type="line"/>
      <point x="585.0" y="700.0" type="line"/>
    </contour>
    <contour>
      <point x="200.0" y="401.0" type="curve" smooth="yes"/>
      <point x="288.0" y="401.0"/>
      <point x="356.0" y="472.0"/>
      <point x="356.0" y="553.0" type="curve" smooth="yes"/>
      <point x="356.0" y="634.0"/>
      <point x="289.0" y="708.0"/>
      <point x="200.0" y="708.0" type="curve" smooth="yes"/>
      <point x="112.0" y="708.0"/>
      <point x="45.0" y="635.0"/>
      <point x="45.0" y="553.0" type="curve" smooth="yes"/>
      <point x="45.0" y="472.0"/>
      <point x="112.0" y="401.0"/>
    </contour>
    <contour>
      <point x="200.0" y="450.0" type="curve" smooth="yes"/>
      <point x="141.0" y="450.0"/>
      <point x="101.0" y="496.0"/>
      <point x="101.0" y="552.0" type="curve" smooth="yes"/>
      <point x="101.0" y="612.0"/>
      <point x="141.0" y="658.0"/>
      <point x="200.0" y="658.0" type="curve" smooth="yes"/>
      <point x="260.0" y="658.0"/>
      <point x="300.0" y="612.0"/>
      <point x="300.0" y="552.0" type="curve" smooth="yes"/>
      <point x="301.0" y="494.0"/>
      <point x="262.0" y="450.0"/>
    </contour>
    <contour>
      <point x="540.0" y="-6.0" type="curve" smooth="yes"/>
      <point x="628.0" y="-6.0"/>
      <point x="696.0" y="65.0"/>
      <point x="696.0" y="146.0" type="curve" smooth="yes"/>
      <point x="696.0" y="227.0"/>
      <point x="629.0" y="301.0"/>
      <point x="540.0" y="301.0" type="curve" smooth="yes"/>
      <point x="452.0" y="301.0"/>
      <point x="385.0" y="228.0"/>
      <point x="385.0" y="146.0" type="curve" smooth="yes"/>
      <point x="385.0" y="65.0"/>
      <point x="452.0" y="-6.0"/>
    </contour>
    <contour>
      <point x="540.0" y="43.0" type="curve" smooth="yes"/>
      <point x="481.0" y="43.0"/>
      <point x="441.0" y="89.0"/>
      <point x="441.0" y="145.0" type="curve" smooth="yes"/>
      <point x="441.0" y="205.0"/>
      <point x="481.0" y="251.0"/>
      <point x="540.0" y="251.0" type="curve" smooth="yes"/>
      <point x="600.0" y="251.0"/>
      <point x="640.0" y="205.0"/>
      <point x="640.0" y="145.0" type="curve" smooth="yes"/>
      <point x="641.0" y="87.0"/>
      <point x="602.0" y="43.0"/>
    </contour>
    <contour>
      <point x="890.0" y="-8.0" type="curve" smooth="yes"/>
      <point x="978.0" y="-8.0"/>
      <point x="1046.0" y="63.0"/>
      <point x="1046.0" y="144.0" type="curve" smooth="yes"/>
      <point x="1046.0" y="225.0"/>
      <point x="979.0" y="299.0"/>
      <point x="890.0" y="299.0" type="curve" smooth="yes"/>
      <point x="802.0" y="299.0"/>
      <point x="735.0" y="226.0"/>
      <point x="735.0" y="144.0" type="curve" smooth="yes"/>
      <point x="735.0" y="63.0"/>
      <point x="802.0" y="-8.0"/>
    </contour>
    <contour>
      <point x="890.0" y="41.0" type="curve" smooth="yes"/>
      <point x="831.0" y="41.0"/>
      <point x="791.0" y="87.0"/>
      <point x="791.0" y="143.0" type="curve" smooth="yes"/>
      <point x="791.0" y="203.0"/>
      <point x="831.0" y="249.0"/>
      <point x="890.0" y="249.0" type="curve" smooth="yes"/>
      <point x="950.0" y="249.0"/>
      <point x="990.0" y="203.0"/>
      <point x="990.0" y="143.0" type="curve" smooth="yes"/>
      <point x="991.0" y="85.0"/>
      <point x="952.0" y="41.0"/>
    </contour>
  </outline>
</glyph>
<glyph name="minute" format="2">
  <advance width="282.0"/>
  <unicode hex="2032"/>
  <outline>
    <contour>
      <point x="92.0" y="433.0" type="line"/>
      <point x="143.0" y="433.0" type="line"/>
      <point x="215.0" y="700.0" type="line"/>
      <point x="104.0" y="700.0" type="line"/>
    </contour>
  </outline>
</glyph>
<glyph name="interrobang" format="2">
  <advance width="513.0"/>
  <unicode hex="203D"/>
  <outline>
    <contour>
      <point x="215.0" y="143.0" type="line"/>
      <point x="272.0" y="143.0" type="line"/>
      <point x="280.0" y="331.0" type="line"/>
      <point x="256.0" y="282.0" type="line"/>
      <point x="306.0" y="324.0" type="line"/>
      <point x="277.0" y="357.0" type="line"/>
      <point x="281.0" y="368.0"/>
      <point x="283.0" y="375.0"/>
      <point x="283.0" y="387.0" type="curve" smooth="yes"/>
      <point x="289.0" y="579.0" type="line"/>
      <point x="199.0" y="579.0" type="line"/>
    </contour>
    <contour>
      <point x="249.0" y="302.0" type="line"/>
      <point x="391.0" y="302.0"/>
      <point x="471.0" y="387.0"/>
      <point x="471.0" y="506.0" type="curve" smooth="yes"/>
      <point x="471.0" y="624.0"/>
      <point x="391.0" y="713.0"/>
      <point x="256.0" y="713.0" type="curve" smooth="yes"/>
      <point x="125.0" y="713.0"/>
      <point x="31.0" y="632.0"/>
      <point x="31.0" y="500.0" type="curve"/>
      <point x="119.0" y="500.0" type="line"/>
      <point x="119.0" y="584.0"/>
      <point x="172.0" y="636.0"/>
      <point x="256.0" y="636.0" type="curve" smooth="yes"/>
      <point x="334.0" y="636.0"/>
      <point x="383.0" y="580.0"/>
      <point x="383.0" y="490.0" type="curve" smooth="yes"/>
      <point x="383.0" y="410.0"/>
      <point x="331.0" y="359.0"/>
      <point x="249.0" y="359.0" type="curve"/>
    </contour>
    <component base="period" xOffset="135.0"/>
  </outline>
</glyph>
<glyph name="kip" format="2">
  <advance width="600.0"/>
  <unicode hex="20AD"/>
  <anchor x="294.0" y="30.0" name="bottom"/>
  <anchor x="471.0" y="30.0" name="ogonek"/>
  <anchor x="284.0" y="671.9057" name="top"/>
  <outline>
    <contour>
      <point x="0.0" y="324.0" type="line"/>
      <point x="590.0" y="324.0" type="line"/>
      <point x="590.0" y="396.0" type="line"/>
      <point x="0.0" y="396.0" type="line"/>
    </contour>
    <component base="K" yScale="0.9157" yOffset="30.0"/>
  </outline>
</glyph>
<glyph name="hryvnia" format="2">
  <advance width="594.0"/>
  <unicode hex="20B4"/>
  <outline>
    <contour>
      <point x="315.0" y="27.0" type="curve" smooth="yes"/>
      <point x="420.0" y="27.0"/>
      <point x="507.0" y="67.0"/>
      <point x="561.0" y="152.0" type="curve"/>
      <point x="493.0" y="198.0" type="line"/>
      <point x="448.0" y="126.0"/>
      <point x="388.0" y="103.0"/>
      <point x="309.0" y="103.0" type="curve" smooth="yes"/>
      <point x="236.0" y="103.0"/>
      <point x="169.0" y="142.0"/>
      <point x="169.0" y="214.0" type="curve" smooth="yes"/>
      <point x="169.0" y="242.0"/>
      <point x="179.0" y="262.0"/>
      <point x="217.0" y="277.0" type="curve"/>
      <point x="93.0" y="277.0" type="line"/>
      <point x="87.0" y="260.0"/>
      <point x="84.0" y="241.0"/>
      <point x="84.0" y="219.0" type="curve" smooth="yes"/>
      <point x="84.0" y="103.0"/>
      <point x="184.0" y="27.0"/>
    </contour>
    <contour>
      <point x="21.0" y="253.0" type="line"/>
      <point x="572.0" y="253.0" type="line"/>
      <point x="572.0" y="325.0" type="line"/>
      <point x="21.0" y="325.0" type="line"/>
    </contour>
    <contour>
      <point x="21.0" y="375.0" type="line"/>
      <point x="572.0" y="375.0" type="line"/>
      <point x="572.0" y="447.0" type="line"/>
      <point x="21.0" y="447.0" type="line"/>
    </contour>
    <contour>
      <point x="379.0" y="419.0" type="curve"/>
      <point x="505.0" y="419.0" type="line"/>
      <point x="516.0" y="439.0"/>
      <point x="523.0" y="464.0"/>
      <point x="523.0" y="495.0" type="curve" smooth="yes"/>
      <point x="523.0" y="579.0"/>
      <point x="442.0" y="673.0"/>
      <point x="303.0" y="673.0" type="curve" smooth="yes"/>
      <point x="202.0" y="673.0"/>
      <point x="134.0" y="634.0"/>
      <point x="89.0" y="564.0" type="curve"/>
      <point x="157.0" y="520.0" type="line"/>
      <point x="193.0" y="578.0"/>
      <point x="244.0" y="598.0"/>
      <point x="304.0" y="598.0" type="curve" smooth="yes"/>
      <point x="391.0" y="598.0"/>
      <point x="439.0" y="552.0"/>
      <point x="439.0" y="500.0" type="curve" smooth="yes"/>
      <point x="439.0" y="458.0"/>
      <point x="415.0" y="434.0"/>
    </contour>
  </outline>
</glyph>
<glyph name="partialdiff" format="2">
  <advance width="623.0"/>
  <unicode hex="2202"/>
  <outline>
    <contour>
      <point x="289.0" y="-13.0" type="curve" smooth="yes"/>
      <point x="443.0" y="-13.0"/>
      <point x="549.0" y="89.0"/>
      <point x="549.0" y="281.0" type="curve" smooth="yes"/>
      <point x="549.0" y="339.0"/>
      <point x="532.0" y="403.0"/>
      <point x="502.0" y="464.0" type="curve" smooth="yes"/>
      <point x="445.0" y="585.0"/>
      <point x="354.0" y="666.0"/>
      <point x="230.0" y="756.0" type="curve"/>
      <point x="169.0" y="687.0" type="line"/>
      <point x="306.0" y="597.0"/>
      <point x="403.0" y="491.0"/>
      <point x="449.0" y="392.0" type="curve"/>
      <point x="449.0" y="385.0" type="line"/>
      <point x="463.0" y="345.0"/>
      <point x="471.0" y="303.0"/>
      <point x="471.0" y="260.0" type="curve" smooth="yes"/>
      <point x="471.0" y="153.0"/>
      <point x="407.0" y="60.0"/>
      <point x="288.0" y="60.0" type="curve" smooth="yes"/>
      <point x="178.0" y="60.0"/>
      <point x="114.0" y="145.0"/>
      <point x="114.0" y="242.0" type="curve" smooth="yes"/>
      <point x="114.0" y="341.0"/>
      <point x="191.0" y="415.0"/>
      <point x="285.0" y="415.0" type="curve" smooth="yes"/>
      <point x="378.0" y="415.0"/>
      <point x="420.0" y="382.0"/>
      <point x="499.0" y="291.0" type="curve"/>
      <point x="496.0" y="367.0" type="line"/>
      <point x="448.0" y="436.0"/>
      <point x="389.0" y="488.0"/>
      <point x="276.0" y="488.0" type="curve" smooth="yes"/>
      <point x="155.0" y="488.0"/>
      <point x="36.0" y="393.0"/>
      <point x="36.0" y="241.0" type="curve" smooth="yes"/>
      <point x="36.0" y="101.0"/>
      <point x="134.0" y="-13.0"/>
    </contour>
  </outline>
</glyph>
<glyph name="infinity" format="2">
  <advance width="757.0"/>
  <unicode hex="221E"/>
  <outline>
    <contour>
      <point x="209.0" y="102.0" type="curve" smooth="yes"/>
      <point x="291.0" y="102.0"/>
      <point x="361.0" y="164.0"/>
      <point x="397.0" y="253.0" type="curve"/>
      <point x="351.0" y="253.0" type="line"/>
      <point x="383.0" y="164.0"/>
      <point x="464.0" y="102.0"/>
      <point x="548.0" y="102.0" type="curve" smooth="yes"/>
      <point x="656.0" y="102.0"/>
      <point x="737.0" y="181.0"/>
      <point x="737.0" y="287.0" type="curve" smooth="yes"/>
      <point x="737.0" y="392.0"/>
      <point x="656.0" y="472.0"/>
      <point x="548.0" y="472.0" type="curve" smooth="yes"/>
      <point x="464.0" y="472.0"/>
      <point x="383.0" y="409.0"/>
      <point x="349.0" y="321.0" type="curve"/>
      <point x="395.0" y="321.0" type="line"/>
      <point x="361.0" y="409.0"/>
      <point x="291.0" y="472.0"/>
      <point x="209.0" y="472.0" type="curve" smooth="yes"/>
      <point x="101.0" y="472.0"/>
      <point x="20.0" y="392.0"/>
      <point x="20.0" y="287.0" type="curve" smooth="yes"/>
      <point x="20.0" y="181.0"/>
      <point x="101.0" y="102.0"/>
    </contour>
    <contour>
      <point x="206.0" y="180.0" type="curve" smooth="yes"/>
      <point x="151.0" y="180.0"/>
      <point x="96.0" y="222.0"/>
      <point x="96.0" y="287.0" type="curve" smooth="yes"/>
      <point x="96.0" y="352.0"/>
      <point x="151.0" y="394.0"/>
      <point x="206.0" y="394.0" type="curve" smooth="yes"/>
      <point x="277.0" y="394.0"/>
      <point x="325.0" y="330.0"/>
      <point x="356.0" y="236.0" type="curve"/>
      <point x="356.0" y="338.0" type="line"/>
      <point x="325.0" y="244.0"/>
      <point x="277.0" y="180.0"/>
    </contour>
    <contour>
      <point x="554.0" y="180.0" type="curve" smooth="yes"/>
      <point x="483.0" y="180.0"/>
      <point x="419.0" y="244.0"/>
      <point x="388.0" y="338.0" type="curve"/>
      <point x="388.0" y="236.0" type="line"/>
      <point x="419.0" y="330.0"/>
      <point x="483.0" y="394.0"/>
      <point x="554.0" y="394.0" type="curve" smooth="yes"/>
      <point x="608.0" y="394.0"/>
      <point x="665.0" y="352.0"/>
      <point x="665.0" y="287.0" type="curve" smooth="yes"/>
      <point x="665.0" y="222.0"/>
      <point x="608.0" y="180.0"/>
    </contour>
  </outline>
</glyph>
<glyph name="approxequal" format="2">
  <advance width="596.0"/>
  <unicode hex="2248"/>
  <outline>
    <contour>
      <point x="82.0" y="181.0" type="line"/>
      <point x="154.0" y="211.0"/>
      <point x="226.0" y="211.0"/>
      <point x="298.0" y="181.0" type="curve" smooth="yes"/>
      <point x="367.0" y="152.0"/>
      <point x="442.0" y="151.0"/>
      <point x="514.0" y="181.0" type="curve"/>
      <point x="514.0" y="253.0" type="line"/>
      <point x="442.0" y="223.0"/>
      <point x="367.0" y="224.0"/>
      <point x="298.0" y="253.0" type="curve" smooth="yes"/>
      <point x="226.0" y="283.0"/>
      <point x="154.0" y="283.0"/>
      <point x="82.0" y="253.0" type="curve"/>
    </contour>
    <contour>
      <point x="82.0" y="381.0" type="line"/>
      <point x="154.0" y="411.0"/>
      <point x="226.0" y="411.0"/>
      <point x="298.0" y="381.0" type="curve" smooth="yes"/>
      <point x="367.0" y="352.0"/>
      <point x="442.0" y="351.0"/>
      <point x="514.0" y="381.0" type="curve"/>
      <point x="514.0" y="453.0" type="line"/>
      <point x="442.0" y="423.0"/>
      <point x="367.0" y="424.0"/>
      <point x="298.0" y="453.0" type="curve" smooth="yes"/>
      <point x="226.0" y="483.0"/>
      <point x="154.0" y="483.0"/>
      <point x="82.0" y="453.0" type="curve"/>
    </contour>
  </outline>
</glyph>
<glyph name="D.circled" format="2">
  <advance width="896.0"/>
  <unicode hex="24B9"/>
  <anchor x="433.748" y="120.0" name="bottom"/>
  <anchor x="301.576" y="354.0743" name="center"/>
  <anchor x="446.204" y="589.49" name="top"/>
  <outline>
    <contour>
      <point x="448.0" y="-50.0" type="curve" smooth="yes"/>
      <point x="671.0" y="-50.0"/>
      <point x="842.0" y="129.0"/>
      <point x="842.0" y="352.0" type="curve" smooth="yes"/>
      <point x="842.0" y="576.0"/>
      <point x="671.0" y="754.0"/>
      <point x="448.0" y="754.0" type="curve" smooth="yes"/>
      <point x="225.0" y="754.0"/>
      <point x="54.0" y="576.0"/>
      <point x="54.0" y="352.0" type="curve" smooth="yes"/>
      <point x="54.0" y="129.0"/>
      <point x="225.0" y="-50.0"/>
    </contour>
    <contour>
      <point x="448.0" y="14.0" type="curve" smooth="yes"/>
      <point x="263.0" y="14.0"/>
      <point x="122.0" y="166.0"/>
      <point x="122.0" y="352.0" type="curve" smooth="yes"/>
      <point x="122.0" y="537.0"/>
      <point x="263.0" y="689.0"/>
      <point x="448.0" y="689.0" type="curve" smooth="yes"/>
      <point x="634.0" y="689.0"/>
      <point x="774.0" y="537.0"/>
      <point x="774.0" y="352.0" type="curve" smooth="yes"/>
      <point x="774.0" y="166.0"/>
      <point x="634.0" y="14.0"/>
    </contour>
    <component base="D" xScale="0.692" yScale="0.6707" xOffset="213.0" yOffset="120.0"/>
  </outline>
</glyph>
<glyph name="upWhiteSmallTriangle" format="2">
  <advance width="287.0"/>
  <unicode hex="25B5"/>
  <outline>
    <contour>
      <point x="45.0" y="292.0" type="line"/>
      <point x="242.0" y="292.0" type="line"/>
      <point x="143.0" y="463.0" type="line"/>
    </contour>
    <contour>
      <point x="107.0" y="328.0" type="line"/>
      <point x="143.0" y="391.0" type="line"/>
      <point x="179.0" y="328.0" type="line"/>
    </contour>
  </outline>
</glyph>
<glyph name="blackDiamond" format="2">
  <advance width="786.0"/>
  <unicode hex="25C6"/>
  <outline>
    <contour>
      <point x="30.0" y="350.0" type="line"/>
      <point x="393.0" y="-13.0" type="line"/>
      <point x="756.0" y="350.0" type="line"/>
      <point x="393.0" y="713.0" type="line"/>
    </contour>
  </outline>
</glyph>
<glyph name="heartWhiteSuit" format="2">
  <advance width="832.0"/>
  <unicode hex="2661"/>
  <outline>
    <contour>
      <point x="416.0" y="-13.0" type="curve"/>
      <point x="618.0" y="102.0"/>
      <point x="827.0" y="294.0"/>
      <point x="827.0" y="508.0" type="curve" smooth="yes"/>
      <point x="827.0" y="622.0"/>
      <point x="736.0" y="713.0"/>
      <point x="622.0" y="713.0" type="curve" smooth="yes"/>
      <point x="503.0" y="713.0"/>
      <point x="426.0" y="620.0"/>
      <point x="419.0" y="531.0" type="curve"/>
      <point x="413.0" y="531.0" type="line"/>
      <point x="406.0" y="621.0"/>
      <point x="329.0" y="713.0"/>
      <point x="210.0" y="713.0" type="curve" smooth="yes"/>
      <point x="96.0" y="713.0"/>
      <point x="5.0" y="622.0"/>
      <point x="5.0" y="508.0" type="curve" smooth="yes"/>
      <point x="5.0" y="294.0"/>
      <point x="214.0" y="102.0"/>
    </contour>
    <contour>
      <point x="416.0" y="45.0" type="curve"/>
      <point x="237.0" y="151.0"/>
      <point x="61.0" y="320.0"/>
      <point x="61.0" y="502.0" type="curve" smooth="yes"/>
      <point x="61.0" y="592.0"/>
      <point x="131.0" y="663.0"/>
      <point x="212.0" y="663.0" type="curve" smooth="yes"/>
      <point x="315.0" y="663.0"/>
      <point x="365.0" y="600.0"/>
      <point x="390.0" y="493.0" type="curve"/>
      <point x="442.0" y="493.0" type="line"/>
      <point x="467.0" y="600.0"/>
      <point x="502.0" y="663.0"/>
      <point x="620.0" y="663.0" type="curve" smooth="yes"/>
      <point x="701.0" y="663.0"/>
      <point x="771.0" y="592.0"/>
      <point x="771.0" y="502.0" type="curve" smooth="yes"/>
      <point x="771.0" y="320.0"/>
      <point x="595.0" y="151.0"/>
    </contour>
  </outline>
</glyph>
<glyph name="checkmark" format="2">
  <advance width="600.0"/>
  <unicode hex="2713"/>
  <outline>
    <contour>
      <point x="235.0" y="146.0" type="line"/>
      <point x="275.0" y="200.0" type="line"/>
      <point x="121.0" y="365.0" type="line"/>
      <point x="73.0" y="319.0" type="line"/>
    </contour>
    <contour>
      <point x="235.0" y="146.0" type="line"/>
      <point x="560.0" y="496.0" type="line"/>
      <point x="511.0" y="542.0" type="line"/>
      <point x="196.0" y="203.0" type="line"/>
    </contour>
  </outline>
</glyph>
<glyph name="ballotX" format="2">
  <advance width="600.0"/>
  <unicode hex="2717"/>
  <outline>
    <contour>
      <point x="445.0" y="157.0" type="line"/>
      <point x="492.0" y="205.0" type="line"/>
      <point x="155.0" y="543.0" type="line"/>
      <point x="108.0" y="495.0" type="line"/>
    </contour>
    <contour>
      <point x="155.0" y="157.0" type="line"/>
      <point x="492.0" y="495.0" type="line"/>
      <point x="445.0" y="543.0" type="line"/>
      <point x="108.0" y="205.0" type="line"/>
    </contour>
  </outline>
</glyph>
<glyph name="saltillo" format="2">
  <advance width="244.0"/>
  <unicode hex="A78C"/>
  <outline>
    <contour>
      <point x="100.0" y="263.0" type="line"/>
      <point x="144.0" y="263.0" type="line"/>
      <point x="167.0" y="577.0" type="line"/>
      <point x="167.0" y="700.0" type="line"/>
      <point x="77.0" y="700.0" type="line"/>
      <point x="77.0" y="577.0" type="line"/>
    </contour>
  </outline>
</glyph>
<glyph name="G.ss02" format="2">
  <advance width="732.0"/>
  <anchor x="396.0" y="0.0" name="bottom"/>
  <anchor x="523.0" y="9.0" name="ogonek"/>
  <anchor x="396.0" y="700.0" name="top"/>
  <outline>
    <contour>
      <point x="396.0" y="-13.0" type="curve" smooth="yes"/>
      <point x="508.0" y="-13.0"/>
      <point x="596.0" y="28.0"/>
      <point x="666.0" y="98.0" type="curve"/>
      <point x="666.0" y="367.0" type="line"/>
      <point x="363.0" y="367.0" type="line"/>
      <point x="363.0" y="293.0" type="line"/>
      <point x="623.0" y="294.0" type="line"/>
      <point x="586.0" y="318.0" type="line"/>
      <point x="586.0" y="82.0" type="line"/>
      <point x="609.0" y="151.0" type="line"/>
      <point x="548.0" y="93.0"/>
      <point x="489.0" y="63.0"/>
      <point x="397.0" y="63.0" type="curve" smooth="yes"/>
      <point x="239.0" y="63.0"/>
      <point x="128.0" y="187.0"/>
      <point x="128.0" y="349.0" type="curve" smooth="yes"/>
      <point x="128.0" y="511.0"/>
      <point x="230.0" y="637.0"/>
      <point x="397.0" y="637.0" type="curve" smooth="yes"/>
      <point x="473.0" y="637.0"/>
      <point x="541.0" y="615.0"/>
      <point x="592.0" y="551.0" type="curve"/>
      <point x="653.0" y="603.0" type="line"/>
      <point x="590.0" y="678.0"/>
      <point x="504.0" y="713.0"/>
      <point x="396.0" y="713.0" type="curve" smooth="yes"/>
      <point x="187.0" y="713.0"/>
      <point x="41.0" y="555.0"/>
      <point x="41.0" y="349.0" type="curve" smooth="yes"/>
      <point x="41.0" y="144.0"/>
      <point x="191.0" y="-13.0"/>
    </contour>
  </outline>
</glyph>
<glyph name="circumflexcomb.case" format="2">
  <anchor x="0.0" y="700.0" name="_top"/>
  <anchor x="1.0" y="857.0" name="top"/>
  <outline>
    <contour>
      <point x="-142.0" y="740.0" type="line"/>
      <point x="-63.0" y="740.0" type="line"/>
      <point x="1.0" y="807.0" type="line"/>
      <point x="3.0" y="807.0" type="line"/>
      <point x="65.0" y="740.0" type="line"/>
      <point x="142.0" y="740.0" type="line"/>
      <point x="27.0" y="859.0" type="line"/>
      <point x="-23.0" y="859.0" type="line"/>
    </contour>
  </outline>
</glyph>
<glyph name="hookabovecombviet" format="2">
  <advance width="300.0"/>
  <anchor x="0.0" y="490.0" name="_top"/>
  <anchor x="0.0" y="662.0" name="top"/>
  <outline>
    <contour>
      <point x="-25.0" y="562.0" type="curve"/>
      <point x="1.0" y="521.0" type="line"/>
      <point x="39.0" y="540.0"/>
      <point x="62.0" y="562.0"/>
      <point x="62.0" y="608.0" type="curve" smooth="yes"/>
      <point x="62.0" y="659.0"/>
      <point x="20.0" y="696.0"/>
      <point x="-44.0" y="696.0" type="curve" smooth="yes"/>
      <point x="-78.0" y="696.0"/>
      <point x="-99.0" y="690.0"/>
      <point x="-121.0" y="676.0" type="curve"/>
      <point x="-95.0" y="624.0" type="line"/>
      <point x="-83.0" y="632.0"/>
      <point x="-66.0" y="637.0"/>
      <point x="-50.0" y="637.0" type="curve" smooth="yes"/>
      <point x="-17.0" y="637.0"/>
      <point x="6.0" y="623.0"/>
      <point x="6.0" y="599.0" type="curve" smooth="yes"/>
      <point x="6.0" y="580.0"/>
      <point x="-3.0" y="569.0"/>
    </contour>
  </outline>
</glyph>
<glyph name="one.numr" format="2">
  <advance width="167.0"/>
  <outline>
    <contour>
      <point x="64.0" y="315.0" type="line"/>
      <point x="117.0" y="315.0" type="line"/>
      <point x="117.0" y="706.0" type="line"/>
      <point x="-2.0" y="657.0" type="line"/>
      <point x="17.0" y="608.0" type="line"/>
      <point x="63.0" y="627.0" type="line"/>
      <point x="64.0" y="626.0" type="line"/>
    </contour>
  </outline>
</glyph>
<glyph name="seven.numr" format="2">
  <advance width="290.0"/>
  <outline>
    <contour>
      <point x="79.0" y="313.0" type="line"/>
      <point x="136.0" y="313.0" type="line"/>
      <point x="284.0" y="687.0" type="line"/>
      <point x="284.0" y="700.0" type="line"/>
      <point x="24.0" y="700.0" type="line"/>
      <point x="24.0" y="652.0" type="line"/>
      <point x="212.0" y="652.0" type="line"/>
      <point x="212.0" y="651.0" type="line"/>
      <point x="210.0" y="648.0"/>
      <point x="208.0" y="645.0"/>
      <point x="206.0" y="640.0" type="curve" smooth="yes"/>
    </contour>
  </outline>
</glyph>
<glyph name="three.numr" format="2">
  <advance width="322.0"/>
  <outline>
    <contour>
      <point x="155.0" y="308.0" type="curve" smooth="yes"/>
      <point x="225.0" y="308.0"/>
      <point x="282.0" y="349.0"/>
      <point x="282.0" y="427.0" type="curve" smooth="yes"/>
      <point x="282.0" y="475.0"/>
      <point x="253.0" y="509.0"/>
      <point x="219.0" y="521.0" type="curve"/>
      <point x="219.0" y="522.0" type="line"/>
      <point x="253.0" y="539.0"/>
      <point x="274.0" y="569.0"/>
      <point x="274.0" y="601.0" type="curve" smooth="yes"/>
      <point x="274.0" y="664.0"/>
      <point x="226.0" y="706.0"/>
      <point x="155.0" y="706.0" type="curve" smooth="yes"/>
      <point x="90.0" y="706.0"/>
      <point x="29.0" y="672.0"/>
      <point x="31.0" y="584.0" type="curve"/>
      <point x="84.0" y="584.0" type="line"/>
      <point x="82.0" y="638.0"/>
      <point x="114.0" y="658.0"/>
      <point x="156.0" y="658.0" type="curve" smooth="yes"/>
      <point x="194.0" y="658.0"/>
      <point x="220.0" y="636.0"/>
      <point x="220.0" y="596.0" type="curve" smooth="yes"/>
      <point x="220.0" y="555.0"/>
      <point x="185.0" y="536.0"/>
      <point x="144.0" y="536.0" type="curve" smooth="yes"/>
      <point x="99.0" y="536.0" type="line"/>
      <point x="99.0" y="490.0" type="line"/>
      <point x="143.0" y="490.0" type="line" smooth="yes"/>
      <point x="189.0" y="490.0"/>
      <point x="228.0" y="472.0"/>
      <point x="228.0" y="426.0" type="curve" smooth="yes"/>
      <point x="228.0" y="388.0"/>
      <point x="208.0" y="356.0"/>
      <point x="155.0" y="356.0" type="curve" smooth="yes"/>
      <point x="114.0" y="356.0"/>
      <point x="82.0" y="381.0"/>
      <point x="84.0" y="435.0" type="curve"/>
      <point x="30.0" y="435.0" type="line"/>
      <point x="27.0" y="347.0"/>
      <point x="90.0" y="308.0"/>
    </contour>
  </outline>
</glyph>
<glyph name="won.tf" format="2">
  <advance width="596.0"/>
  <outline>
    <contour>
      <point x="116.0" y="30.0" type="line"/>
      <point x="217.0" y="30.0" type="line"/>
      <point x="289.0" y="421.0" type="line" smooth="yes"/>
      <point x="300.0" y="481.0"/>
      <point x="302.0" y="511.0"/>
      <point x="304.0" y="541.0" type="curve"/>
      <point x="306.0" y="541.0" type="line"/>
      <point x="309.0" y="511.0"/>
      <point x="312.0" y="481.0"/>
      <point x="321.0" y="421.0" type="curve" smooth="yes"/>
      <point x="381.0" y="30.0" type="line"/>
      <point x="479.0" y="30.0" type="line"/>
      <point x="572.0" y="670.0" type="line"/>
      <point x="491.0" y="670.0" type="line"/>
      <point x="443.0" y="284.0" type="line" smooth="yes"/>
      <point x="435.0" y="220.0"/>
      <point x="434.0" y="179.0"/>
      <point x="433.0" y="148.0" type="curve"/>
      <point x="429.0" y="148.0" type="line"/>
      <point x="427.0" y="179.0"/>
      <point x="418.0" y="220.0"/>
      <point x="409.0" y="284.0" type="curve" smooth="yes"/>
      <point x="352.0" y="670.0" type="line"/>
      <point x="258.0" y="670.0" type="line"/>
      <point x="193.0" y="284.0" type="line" smooth="yes"/>
      <point x="182.0" y="220.0"/>
      <point x="173.0" y="179.0"/>
      <point x="169.0" y="148.0" type="curve"/>
      <point x="167.0" y="148.0" type="line"/>
      <point x="165.0" y="179.0"/>
      <point x="161.0" y="220.0"/>
      <point x="153.0" y="284.0" type="curve" smooth="yes"/>
      <point x="103.0" y="670.0" type="line"/>
      <point x="24.0" y="670.0" type="line"/>
    </contour>
    <contour>
      <point x="13.0" y="318.0" type="line"/>
      <point x="583.0" y="318.0" type="line"/>
      <point x="583.0" y="380.0" type="line"/>
      <point x="13.0" y="380.0" type="line"/>
    </contour>
  </outline>
</glyph>
<glyph name="zero.zero" format="2">
  <advance width="594.0"/>
  <outline>
    <contour>
      <point x="115.0" y="106.0" type="line"/>
      <point x="175.0" y="70.0" type="line"/>
      <point x="462.0" y="606.0" type="line"/>
      <point x="400.0" y="642.0" type="line"/>
    </contour>
    <component base="zero"/>
  </outline>
</glyph>
